<?xml version="1.0" encoding="UTF-8"?>
<svg width="412px" height="75px" viewBox="0 0 412 75" version="1.1" xmlns="http://www.w3.org/2000/svg" xmlns:xlink="http://www.w3.org/1999/xlink">
    <!-- Generator: Sketch 43.2 (39069) - http://www.bohemiancoding.com/sketch -->
    <title>Logo 3</title>
    <desc>Created with Sketch.</desc>
    <defs></defs>
    <g id="Page-1" stroke="none" stroke-width="1" fill="none" fill-rule="evenodd">
        <g id="Logo-3">
            <path d="M113.263184,69 L109.294922,61.3994141 L89.7055664,61.3994141 L85.7373047,69 L82.8608398,69 L97.9570312,40.1513672 L101.043457,40.1513672 L116.139648,69 L113.263184,69 Z M99.5107422,42.6918945 L90.9863281,58.9848633 L108.01416,58.9848633 L99.5107422,42.6918945 Z M138.356466,39.6264648 C139.686225,39.6264648 140.924982,39.6929518 142.072774,39.8259277 C143.220566,39.9589037 144.319351,40.1478666 145.369161,40.3928223 C146.418971,40.6377779 147.440771,40.9317203 148.434591,41.2746582 C149.428411,41.6175961 150.429215,41.9990213 151.437032,42.4189453 L151.437032,45.6103516 C150.639177,45.1064428 149.788843,44.6305361 148.886007,44.1826172 C147.98317,43.7346983 147.010361,43.3427751 145.96755,43.0068359 C144.924738,42.6708968 143.804958,42.4049489 142.608175,42.2089844 C141.411391,42.0130199 140.127143,41.9150391 138.755391,41.9150391 C135.955898,41.9150391 133.513377,42.2089814 131.427755,42.796875 C129.342132,43.3847686 127.606473,44.2246039 126.220724,45.3164062 C124.834974,46.4082086 123.795678,47.7379479 123.102804,49.3056641 C122.409929,50.8733802 122.063497,52.6370345 122.063497,54.5966797 C122.063497,56.4303477 122.40293,58.1205164 123.081808,59.6672363 C123.760685,61.2139563 124.789483,62.5471949 126.168233,63.6669922 C127.546984,64.7867895 129.272145,65.6616179 131.34377,66.2915039 C133.415395,66.9213899 135.843919,67.2363281 138.629415,67.2363281 C139.721217,67.2363281 140.802505,67.1943364 141.873311,67.1103516 C142.944118,67.0263668 143.955419,66.917888 144.907247,66.7849121 C145.859075,66.6519362 146.726904,66.504965 147.510763,66.3439941 C148.294621,66.1830233 148.95949,66.0185555 149.505391,65.8505859 L149.505391,57.0952148 L137.768575,57.0952148 L137.768575,54.6386719 L152.129903,54.6386719 L152.129903,67.3203125 C151.094091,67.6842466 150.047796,68.0061835 148.990987,68.2861328 C147.934179,68.5660821 146.842393,68.8005362 145.715597,68.989502 C144.588801,69.1784677 143.42003,69.3219396 142.209249,69.4199219 C140.998468,69.5179041 139.728217,69.5668945 138.398458,69.5668945 C135.68295,69.5668945 133.163443,69.2624542 130.839864,68.6535645 C128.516285,68.0446747 126.504179,67.1208558 124.803487,65.8820801 C123.102795,64.6433044 121.769556,63.0861096 120.803731,61.2104492 C119.837906,59.3347888 119.355001,57.130221 119.355001,54.5966797 C119.355001,52.9029863 119.578957,51.3597889 120.026876,49.967041 C120.474795,48.5742932 121.108171,47.3215388 121.927022,46.2087402 C122.745874,45.0959417 123.732681,44.1266317 124.887472,43.3007812 C126.042262,42.4749308 127.323011,41.7925645 128.729757,41.2536621 C130.136502,40.7147597 131.651705,40.3088393 133.275411,40.0358887 C134.899117,39.7629381 136.592785,39.6264648 138.356466,39.6264648 Z M163.11381,56.6542969 L163.11381,69 L160.489299,69 L160.489299,40.1513672 L174.850627,40.1513672 C177.048229,40.1513672 178.93086,40.3228336 180.498576,40.6657715 C182.066292,41.0087094 183.35054,41.5266079 184.351359,42.2194824 C185.352178,42.912357 186.083535,43.7766875 186.545451,44.8125 C187.007367,45.8483125 187.238322,47.0590751 187.238322,48.4448242 C187.238322,50.600434 186.671433,52.3255957 185.537638,53.6203613 C184.403844,54.9151269 182.577202,55.8004533 180.057658,56.2763672 L189.904826,69 L186.608439,69 L177.30717,56.5703125 C176.915241,56.5983074 176.516319,56.6193033 176.110392,56.6333008 C175.704466,56.6472982 175.284548,56.6542969 174.850627,56.6542969 L163.11381,56.6542969 Z M184.529826,48.4448242 C184.529826,47.2130472 184.312868,46.2157427 183.878947,45.4528809 C183.445026,44.690019 182.738164,44.0986349 181.758342,43.6787109 C180.778519,43.258787 179.494271,42.9753425 177.905558,42.8283691 C176.316846,42.6813957 174.367728,42.6079102 172.058146,42.6079102 L163.11381,42.6079102 L163.11381,54.1977539 L171.974162,54.1977539 C174.283744,54.1977539 176.236361,54.1312669 177.832072,53.998291 C179.427783,53.8653151 180.722529,53.5923686 181.716349,53.1794434 C182.710169,52.7665181 183.427529,52.185632 183.868449,51.4367676 C184.309369,50.6879032 184.529826,49.6905987 184.529826,48.4448242 Z M230.493225,54.5966797 C230.493225,57.1862109 230.024317,59.4222725 229.086487,61.3049316 C228.148657,63.1875908 226.860909,64.7412862 225.223206,65.9660645 C223.585502,67.1908427 221.653881,68.097165 219.428284,68.6850586 C217.202687,69.2729522 214.802157,69.5668945 212.226624,69.5668945 C209.637093,69.5668945 207.222566,69.2729522 204.982971,68.6850586 C202.743377,68.097165 200.797758,67.1908427 199.146057,65.9660645 C197.494356,64.7412862 196.19961,63.1875908 195.26178,61.3049316 C194.32395,59.4222725 193.855042,57.1862109 193.855042,54.5966797 C193.855042,52.8749914 194.071999,51.310798 194.505921,49.9040527 C194.939842,48.4973074 195.548723,47.2375544 196.332581,46.1247559 C197.116439,45.0119573 198.064753,44.049646 199.177551,43.237793 C200.29035,42.42594 201.529107,41.7505724 202.89386,41.2116699 C204.258613,40.6727675 205.724825,40.2738457 207.292542,40.0148926 C208.860258,39.7559395 210.504935,39.6264648 212.226624,39.6264648 C214.802157,39.6264648 217.202687,39.9204072 219.428284,40.5083008 C221.653881,41.0961943 223.585502,42.0025167 225.223206,43.2272949 C226.860909,44.4520732 228.148657,46.0057686 229.086487,47.8884277 C230.024317,49.7710869 230.493225,52.0071485 230.493225,54.5966797 Z M227.784729,54.5966797 C227.784729,52.5530497 227.452294,50.7474037 226.787415,49.1796875 C226.122535,47.6119713 225.139228,46.29273 223.837464,45.2219238 C222.535699,44.1511177 220.915517,43.3392769 218.976868,42.786377 C217.038219,42.2334771 214.78816,41.9570312 212.226624,41.9570312 C209.665087,41.9570312 207.40803,42.2369764 205.455383,42.796875 C203.502737,43.3567736 201.868557,44.1721138 200.552796,45.2429199 C199.237034,46.3137261 198.243229,47.6364667 197.57135,49.2111816 C196.899472,50.7858965 196.563538,52.5810446 196.563538,54.5966797 C196.563538,56.6403097 196.899472,58.4459557 197.57135,60.0136719 C198.243229,61.581388 199.237034,62.9006294 200.552796,63.9714355 C201.868557,65.0422417 203.502737,65.8540825 205.455383,66.4069824 C207.40803,66.9598823 209.665087,67.2363281 212.226624,67.2363281 C214.78816,67.2363281 217.038219,66.9598823 218.976868,66.4069824 C220.915517,65.8540825 222.535699,65.0422417 223.837464,63.9714355 C225.139228,62.9006294 226.122535,61.581388 226.787415,60.0136719 C227.452294,58.4459557 227.784729,56.6403097 227.784729,54.5966797 Z M265.853597,69 L240.784261,43.5947266 L240.784261,69 L238.15975,69 L238.15975,40.1513672 L241.05721,40.1513672 L266.126546,65.640625 L266.126546,40.1513672 L268.709066,40.1513672 L268.709066,69 L265.853597,69 Z M313.013774,54.5966797 C313.013774,57.1862109 312.544866,59.4222725 311.607036,61.3049316 C310.669205,63.1875908 309.381458,64.7412862 307.743754,65.9660645 C306.106051,67.1908427 304.17443,68.097165 301.948832,68.6850586 C299.723235,69.2729522 297.322706,69.5668945 294.747172,69.5668945 C292.157641,69.5668945 289.743114,69.2729522 287.50352,68.6850586 C285.263925,68.097165 283.318307,67.1908427 281.666606,65.9660645 C280.014905,64.7412862 278.720159,63.1875908 277.782329,61.3049316 C276.844498,59.4222725 276.37559,57.1862109 276.37559,54.5966797 C276.37559,52.8749914 276.592548,51.310798 277.026469,49.9040527 C277.460391,48.4973074 278.069271,47.2375544 278.853129,46.1247559 C279.636987,45.0119573 280.585301,44.049646 281.6981,43.237793 C282.810899,42.42594 284.049656,41.7505724 285.414409,41.2116699 C286.779162,40.6727675 288.245374,40.2738457 289.81309,40.0148926 C291.380806,39.7559395 293.025484,39.6264648 294.747172,39.6264648 C297.322706,39.6264648 299.723235,39.9204072 301.948832,40.5083008 C304.17443,41.0961943 306.106051,42.0025167 307.743754,43.2272949 C309.381458,44.4520732 310.669205,46.0057686 311.607036,47.8884277 C312.544866,49.7710869 313.013774,52.0071485 313.013774,54.5966797 Z M310.305278,54.5966797 C310.305278,52.5530497 309.972843,50.7474037 309.307963,49.1796875 C308.643084,47.6119713 307.659776,46.29273 306.358012,45.2219238 C305.056248,44.1511177 303.436065,43.3392769 301.497416,42.786377 C299.558767,42.2334771 297.308709,41.9570312 294.747172,41.9570312 C292.185636,41.9570312 289.928579,42.2369764 287.975932,42.796875 C286.023286,43.3567736 284.389106,44.1721138 283.073344,45.2429199 C281.757582,46.3137261 280.763777,47.6364667 280.091899,49.2111816 C279.42002,50.7858965 279.084086,52.5810446 279.084086,54.5966797 C279.084086,56.6403097 279.42002,58.4459557 280.091899,60.0136719 C280.763777,61.581388 281.757582,62.9006294 283.073344,63.9714355 C284.389106,65.0422417 286.023286,65.8540825 287.975932,66.4069824 C289.928579,66.9598823 292.185636,67.2363281 294.747172,67.2363281 C297.308709,67.2363281 299.558767,66.9598823 301.497416,66.4069824 C303.436065,65.8540825 305.056248,65.0422417 306.358012,63.9714355 C307.659776,62.9006294 308.643084,61.581388 309.307963,60.0136719 C309.972843,58.4459557 310.305278,56.6403097 310.305278,54.5966797 Z M357.360474,69 L357.360474,44.4555664 L341.508423,69 L339.177857,69 L323.30481,44.3505859 L323.30481,69 L320.680298,69 L320.680298,40.1513672 L323.493775,40.1513672 L340.416626,66.2915039 L357.150513,40.1513672 L359.942993,40.1513672 L359.942993,69 L357.360474,69 Z M369.646139,69 L369.646139,40.1513672 L372.270651,40.1513672 L372.270651,69 L369.646139,69 Z M411.557292,66.7114258 C410.549475,67.1313498 409.55217,67.5162743 408.565349,67.8662109 C407.578527,68.2161476 406.553228,68.5170886 405.489421,68.769043 C404.425614,69.0209974 403.305833,69.2169589 402.130046,69.3569336 C400.954259,69.4969083 399.67351,69.5668945 398.287761,69.5668945 C396.58007,69.5668945 394.938892,69.426922 393.364177,69.1469727 C391.789462,68.8670233 390.323249,68.4471057 388.965495,67.887207 C387.607741,67.3273084 386.375982,66.6309449 385.270183,65.7980957 C384.164383,64.9652465 383.216069,63.9959365 382.425212,62.8901367 C381.634355,61.7843369 381.025475,60.5385811 380.598552,59.152832 C380.171629,57.7670829 379.958171,56.2483807 379.958171,54.5966797 C379.958171,52.9449787 380.171629,51.4262765 380.598552,50.0405273 C381.025475,48.6547782 381.634355,47.4090225 382.425212,46.3032227 C383.216069,45.1974229 384.164383,44.2281129 385.270183,43.3952637 C386.375982,42.5624145 387.607741,41.866051 388.965495,41.3061523 C390.323249,40.7462537 391.785963,40.326336 393.353679,40.0463867 C394.921395,39.7664374 396.566073,39.6264648 398.287761,39.6264648 C399.67351,39.6264648 400.954259,39.6964511 402.130046,39.8364258 C403.305833,39.9764004 404.425614,40.172362 405.489421,40.4243164 C406.553228,40.6762708 407.578527,40.9737125 408.565349,41.3166504 C409.55217,41.6595883 410.549475,42.0410135 411.557292,42.4609375 L411.557292,45.6103516 C410.759437,45.1064428 409.905604,44.6305361 408.995769,44.1826172 C408.085933,43.7346983 407.102626,43.3427751 406.045817,43.0068359 C404.989009,42.6708968 403.85873,42.4049489 402.654948,42.2089844 C401.451166,42.0130199 400.163419,41.9150391 398.791667,41.9150391 C396.020169,41.9150391 393.619639,42.2159801 391.590007,42.8178711 C389.560374,43.4197621 387.884203,44.2700954 386.561442,45.3688965 C385.238682,46.4676976 384.258874,47.7974369 383.621989,49.3581543 C382.985105,50.9188717 382.666667,52.6650294 382.666667,54.5966797 C382.666667,56.52833 382.985105,58.2709883 383.621989,59.824707 C384.258874,61.3784257 385.238682,62.7046657 386.561442,63.8034668 C387.884203,64.9022679 389.560374,65.7491018 391.590007,66.3439941 C393.619639,66.9388864 396.020169,67.2363281 398.791667,67.2363281 C400.163419,67.2363281 401.461664,67.1383473 402.686442,66.9423828 C403.911221,66.7464183 405.058996,66.4804704 406.129802,66.1445312 C407.200608,65.8085921 408.187415,65.4201682 409.090251,64.979248 C409.993088,64.5383279 410.815426,64.0729191 411.557292,63.5830078 L411.557292,66.7114258 Z" id="AGRONOMIc" fill="#858585"></path>
            <g id="ISO">
                <path d="M0.270111688,19.4702996 C0.270111688,19.4702996 -0.880902571,32.2761814 1.63964116,43.6427194 C4.1601849,55.0092574 15.4839983,65.3788478 15.4839983,65.3788478 C15.4839983,65.3788478 14.8366104,52.0283127 11.9159995,41.0448571 C8.99538867,30.0614015 0.270111688,19.4702996 0.270111688,19.4702996 Z" id="Path" fill="#6FB91D"></path>
                <path d="M20.8604037,54.8880721 C20.8604037,54.8880721 22.4102723,49.1933749 23.7241068,46.4403592 C25.0379412,43.6873434 26.9508544,41.0579655 26.9508544,41.0579655 C26.9508544,41.0579655 22.7246029,35.1486537 17.2113802,29.4811566 C11.6981575,23.8136594 0.554261144,19.3401128 0.554261144,19.3401128 C0.554261144,19.3401128 8.17452201,26.6265618 13.1294852,35.3007268 C18.0844484,43.9748917 20.8604037,54.8880721 20.8604037,54.8880721 Z" id="Path" fill="#6FB91D"></path>
                <path d="M30.6280249,35.7409594 C30.6280249,35.7409594 33.657202,32.104384 34.0706631,31.6583813 C34.4841242,31.2123787 36.901786,28.9734212 36.901786,28.9734212 C36.901786,28.9734212 32.4430589,25.7613905 22.618437,23.0625295 C12.7938151,20.3636686 1.03380039,19.1203495 1.03380039,19.1203495 C1.03380039,19.1203495 13.7987779,22.2123163 20.1850719,27.0813843 C23.7510608,29.8001821 30.6280249,35.7409594 30.6280249,35.7409594 Z" id="Path" fill="#6FB91D"></path>
                <path d="M85.9609969,11.3325365 C85.9609969,11.3325365 86.3026844,37.7278617 84.4914769,43.8119732 C82.6802694,49.8960847 79.528135,55.3268481 77.2028036,58.442016 C74.8774722,61.557184 69.4278388,66.1988873 69.4278388,66.1988873 C69.4278388,66.1988873 68.4935936,49.0052043 70.7264823,41.4660055 C72.959371,33.9268067 76.5357351,24.9380467 79.4974204,20.5225318 C82.4591056,16.1070169 85.9609969,11.3325365 85.9609969,11.3325365 Z" id="Path-3" fill="#6FB91D"></path>
                <path d="M85.5416282,11.1111287 C85.5416282,11.1111287 78.4727213,17.5462164 71.2553741,29.2669929 C64.0380268,40.9877693 62.7310612,51.8903137 62.0842859,55.3272289 C61.4375105,58.764144 61.1915659,71.1802037 61.1915659,71.1802037 C61.1915659,71.1802037 58.9316403,72.2845885 55.2952059,73.4806923 C51.6587714,74.676796 46.7199467,74.8545594 46.7199467,74.8545594 C46.7199467,74.8545594 46.7199467,55.3272289 51.6692194,45.158507 C56.6184922,34.9897851 60.3622474,29.5354092 67.3507445,23.3886831 C74.3392415,17.2419569 85.5416282,11.1111287 85.5416282,11.1111287 Z" id="Path-4" fill="#6FB91D"></path>
                <path d="M85.5228068,10.6287492 C85.5228068,10.6287492 70.2011474,16.9167988 63.0593142,22.7132753 C55.9174809,28.5097519 46.995611,38.4589381 42.4805701,48.852874 C37.9655292,59.2468099 36.650362,74.850265 36.650362,74.850265 C36.650362,74.850265 33.3868945,74.4420705 29.6029419,73.2183272 C25.8189894,71.9945839 24.187784,71.0579436 24.187784,71.0579436 C24.187784,71.0579436 23.137167,59.3647626 30.0933118,46.7108656 C37.0494566,34.0569686 48.1540058,25.9792594 48.1540058,25.9792594 C48.1540058,25.9792594 56.7682972,19.2244468 67.2085135,15.2910041 C77.6487297,11.3575614 85.5228068,10.6287492 85.5228068,10.6287492 Z" id="Path-5" fill="#6FB91D"></path>
                <polygon id="Path-2" fill="#FFCB34" points="28.6686775 20.8808894 22.7075341 15.4301697 28.9546053 14.1427249 26.5584479 7.63837185 32.9816332 9.22584833 32.7916731 2.55804094 37.7051167 6.31664709 40.393748 0.0123604116 43.5688957 5.43151473 47.2389533 0.23135495 49.0632346 6.60926526 54.6255536 3.21065864 54.1736338 9.8873725 60.5159184 8.64720811 56.1594356 15.4301697"></polygon>
                <path d="M48.5643107,20.1144759 C52.7093229,17.2215563 56.169056,15.3993553 56.169056,15.3993553 C53.8492621,10.4707509 48.8354767,7.05882353 43.0242474,7.05882353 C35.2695734,7.05882353 28.9349086,13.1344472 28.5268674,20.7821627 C28.513,21.0420725 41.3426055,25.4291525 41.3426055,25.6925171 C41.3426055,25.6925171 45.3161826,22.3814351 48.5643107,20.1144759 Z" id="Oval" fill="#FFCB35"></path>
            </g>
        </g>
    </g>
</svg>