<?xml version="1.0" encoding="UTF-8"?>
<svg width="221px" height="316px" viewBox="0 0 221 316" version="1.1" xmlns="http://www.w3.org/2000/svg" xmlns:xlink="http://www.w3.org/1999/xlink">
    <!-- Generator: Sketch 48.2 (47327) - http://www.bohemiancoding.com/sketch -->
    <title>agronomic-logo-lg</title>
    <desc>Created with Sketch.</desc>
    <defs></defs>
    <g id="Page-1" stroke="none" stroke-width="1" fill="none" fill-rule="evenodd">
        <g id="agronomic-logo-lg" fill-rule="nonzero">
            <path d="M56.4713757,303.843955 C101.165592,284.627719 148.100352,269.625442 196.77516,259.337465 C180.24234,292.882354 145.390579,316 105.071015,316 C87.473416,316 70.9173862,311.596289 56.4713757,303.843955 Z M200.811699,249.962978 C147.510228,260.770953 96.2373014,277.165072 47.6309456,298.50751 C37.6771218,291.790317 28.9910127,283.375895 22,273.686281 C80.2075772,246.928978 142.218567,227.022474 207,215 C206.999804,215.115247 207,215.230539 207,215.345877 C207,227.509452 204.815094,239.169097 200.811699,249.962978 Z" id="dark-field" fill="#1D8670"></path>
            <path d="M61.6138197,249.17679 C46.9794816,255.035272 32.5585462,261.314656 18.3659306,268 C13.4622592,259.841562 9.68034959,250.946005 7.23061688,241.521514 L61.6138197,249.17679 Z M118,229.040501 C104.079802,233.425851 90.3238939,238.182501 76.7438506,243.298859 L5.45252581,233.263505 C4.49739155,227.695888 4,221.974105 4,216.137383 C4,215.087796 4.01608413,214.041926 4.04802182,213 L118,229.040501 Z" id="light-field" fill="#3ADC84"></path>
            <path d="M99.9636295,220.196042 C80.3131712,183.113939 81.1803435,138.753498 115.238697,91 C108.616806,112.608723 96.3720894,138.526096 96.3720894,160.734153 C96.8716226,167.205941 128.925416,142.50738 144,132.452184 C134.922275,148.447827 101.11966,168.141515 107.301208,190.205838 C111.42224,204.915387 120.921023,216.513441 135.797557,225 L99.9636295,220.196042 Z" id="trunk" fill="#1D8670"></path>
            <path d="M152.494204,107.468041 C162.726897,101.482026 186.833333,105.22422 186.833333,105.22422 C186.833333,105.22422 178.229923,128.14111 168.014616,134.137097 C160.635652,138.437754 152.476818,139.093448 146.903478,136.373439 C144.725305,135.313857 159.038657,124.286724 157.831596,122.212437 C156.828196,120.502147 140.205037,128.026426 140.170266,126.011973 C140.018763,119.479962 144.658246,112.062887 152.494204,107.468041 Z M142.605246,97.0148281 C140.993197,96.1783182 151.481223,87.5820092 150.597509,85.9635442 C149.866747,84.6178543 137.70355,90.4968048 137.669561,88.9199055 C137.553028,83.8203122 140.961636,78.0426781 146.693633,74.4368525 C154.185774,69.7736991 171.833333,72.6988861 171.833333,72.6988861 C171.833333,72.6988861 165.535662,90.5877298 158.058089,95.2586768 C152.658698,98.6151081 146.68635,99.1268859 142.605246,97.0148281 Z M176.987317,76.0131044 C182.659045,72.9457879 196,74.8741376 196,74.8741376 C196,74.8741376 191.234679,86.6088787 185.579961,89.669429 C181.495053,91.8819566 176.980027,92.2134974 173.886577,90.8241835 C172.664264,90.2851477 180.603226,84.6354214 179.939823,83.5776482 C179.380912,82.6980501 170.185617,86.5479834 170.168606,85.5105087 C170.085985,82.1680359 172.647254,78.3744871 176.987317,76.0131044 Z M192.679816,117.993019 C193.744556,115.708352 196.404083,114.038368 199.535535,114.000291 C203.610841,113.951333 210.166667,120.103617 210.166667,120.103617 C210.166667,120.103617 203.708481,126.361975 199.633175,126.413652 C196.690028,126.429971 194.130466,125.029252 192.935539,122.967612 C192.458963,122.157098 198.61493,121.186115 198.61493,120.217851 C198.598657,119.415497 192.342725,118.719217 192.679816,117.993019 Z M208.015766,86.7983893 C212.591069,85.923943 221,90.6109753 221,90.6109753 C221,90.6109753 214.789081,98.031277 210.226057,98.9007265 C206.94009,99.5278294 203.821124,98.6558815 202.124111,96.8944968 C201.458568,96.1924413 208.214692,93.9863381 208.047692,93.059425 C207.897883,92.2724233 200.751274,92.8570531 201.006686,92.0875404 C201.81467,89.6166049 204.503858,87.4704637 208.015766,86.7983893 Z M119.721159,115.645675 C118.513096,115.10236 126.446935,109.4618 125.77849,108.399968 C125.214565,107.522998 116.019186,111.36904 116.002171,110.336515 C115.914666,106.995464 118.476635,103.205783 122.820315,100.840896 C128.493593,97.777138 141.833333,99.6979043 141.833333,99.6979043 C141.833333,99.6979043 137.076433,111.429909 131.420169,114.495921 C127.329283,116.707507 122.805731,117.045671 119.721159,115.645675 Z M140.625536,63.8385874 C139.419544,60.2016788 140.608377,55.199307 143.983682,51.1678159 C148.378687,45.9395975 161.833333,43.6551724 161.833333,43.6551724 C161.833333,43.6551724 161.213179,58.0652222 156.818174,63.275269 C153.646319,67.060146 149.417996,68.9162414 145.97896,68.3970539 C144.635702,68.2153383 150.356807,59.4099178 149.351814,58.4831681 C148.511052,57.6914071 140.995667,64.9574365 140.625536,63.8385874 Z M185.195307,58.4831681 C184.354073,57.6940031 176.817301,64.9600325 176.449414,63.8489712 C175.259914,60.2094666 176.449414,55.199307 179.806994,51.1756037 C184.204466,45.9473853 197.666667,43.6551724 197.666667,43.6551724 C197.666667,43.6551724 197.046164,58.0652222 192.66586,63.275269 C189.492224,67.060146 185.251717,68.9162414 181.82056,68.3970539 C180.476547,68.2153383 186.183696,59.4099178 185.195307,58.4831681 Z M141.85104,32.8176632 C141.012677,32.0263154 133.496827,39.2807693 133.126672,38.1728823 C131.920606,34.5378716 133.102159,29.5303266 136.482576,25.5165068 C140.877853,20.2910167 154.333333,18 154.333333,18 C154.333333,18 153.713141,32.4103136 149.317864,37.6254253 C146.145812,41.3901652 141.907421,43.2556703 138.470624,42.7445375 C137.134636,42.5447546 142.856095,33.7543076 141.85104,32.8176632 Z" id="light-leaves" fill="#3ADC84"></path>
            <path d="M111.766774,38.1352484 C107.267201,35.9817804 103.846917,30.3420951 103.512489,23.5509536 C103.074186,14.6896409 114.318053,0 114.318053,0 C114.318053,0 126.894564,13.6239314 127.29233,22.4533953 C127.621691,28.8378523 125.12615,34.4971369 121.275164,37.2434824 C119.749971,38.3459404 117.368439,25.011098 115.513886,25.1066444 C113.986159,25.1801416 113.172891,38.804073 111.766774,38.1352484 Z M104.483436,67.1876922 C101.008958,66.2913581 97.7448349,62.6025013 96.4391856,57.5527316 C94.7273343,50.9829811 100.191718,38.1590909 100.191718,38.1590909 C100.191718,38.1590909 111.096308,46.3725414 112.800906,52.9347171 C114.005005,57.6789758 113.197437,62.2969902 110.927057,65.0061917 C110.07355,66.0565438 106.279913,56.446832 105.025039,56.8104154 C103.966012,57.1134016 105.576313,67.4654295 104.483436,67.1876922 Z M46.4640902,75.4563884 C40.1562011,73.359482 32.8571429,61.9869618 32.8571429,61.9869618 C32.8571429,61.9869618 45.7448129,57.3346769 52.0601172,59.4484744 C56.6007099,60.9566062 59.893072,64.1176504 60.7754844,67.4258883 C61.1487177,68.7096101 51.1875918,66.7068111 50.7599802,67.9495117 C50.3966339,68.9871063 59.7175783,73.1881582 58.8846007,73.9361916 C56.1582678,76.3347244 51.3062355,77.0706927 46.4640902,75.4563884 Z M13.5988392,63.0161177 C7.27759066,60.9158122 0,49.5403642 0,49.5403642 C0,49.5403642 12.8871427,44.8955506 19.2009777,47.0030986 C23.7281581,48.5240095 27.0098696,51.6792961 27.9192595,54.9794313 C28.2751078,56.2734127 18.3162995,54.2527739 17.8937297,55.4960582 C17.5378815,56.5437968 26.8368878,60.7492362 26.0164599,61.4927926 C23.285819,63.8948662 18.4398579,64.6239378 13.5988392,63.0161177 Z M44.3365121,127.951263 C42.6243685,131.19123 38.3994733,133.501942 33.3956733,133.556604 C26.8895277,133.606297 16.4285714,124.977152 16.4285714,124.977152 C16.4285714,124.977152 26.7737771,116.179052 33.2799228,116.136813 C37.9678202,116.102028 42.0383813,118.089738 43.9579113,120.996763 C44.7199358,122.109881 34.8666699,123.466493 34.9004305,124.818135 C34.9004305,125.956099 44.8694469,126.9425 44.3365121,127.951263 Z M29.5508112,92.2791953 C27.8365516,95.5214466 23.595507,97.8487067 18.6118576,97.8860026 C12.104422,97.9506487 1.64285714,89.3129332 1.64285714,89.3129332 C1.64285714,89.3129332 11.9862803,80.5136024 18.4913049,80.466361 C23.1808056,80.4315516 27.236199,82.4107172 29.1553983,85.3371971 C29.9148804,86.4510994 20.0801897,87.8061814 20.0970671,89.1612635 C20.1115334,90.2875977 30.0836542,91.2896125 29.5508112,92.2791953 Z M55.432197,53.0553585 C51.7848249,53.4187903 47.467125,50.9778687 44.6256249,46.5522484 C40.8772108,40.8095098 42.0749289,26.5454545 42.0749289,26.5454545 C42.0749289,26.5454545 55.1783596,30.6669262 58.9095227,36.4173974 C61.5883696,40.572377 62.2808775,45.3253437 60.9476151,48.7122191 C60.4571914,50.0396475 53.7613063,42.0518796 52.6646302,42.8586468 C51.7355361,43.5262272 56.5609108,52.9548348 55.432197,53.0553585 Z M85.0071917,53.0553585 C81.362541,53.4187903 77.0422244,50.9778687 74.1940705,46.5522484 C70.4483165,40.8095098 71.6467605,26.5454545 71.6467605,26.5454545 C71.6467605,26.5454545 84.7581324,30.6669262 88.4915567,36.4173974 C91.1695612,40.572377 91.8402952,45.3253437 90.5284183,48.7122191 C90.0352314,50.0396475 83.3402202,42.0518796 82.2428795,42.8586468 C81.3107564,43.5262272 86.1415214,52.9548348 85.0071917,53.0553585 Z M114.563238,68.8252348 C116.233062,60.0407725 130.490204,48.1136364 130.490204,48.1136364 C130.490204,48.1136364 139.470599,64.297781 137.790593,73.0647144 C136.581498,79.405153 132.870212,84.3933653 128.504742,86.2439119 C126.789099,86.980124 127.573102,73.3677133 125.77855,73.034665 C124.281818,72.7642197 120.318531,85.9609461 119.1298,84.9968588 C115.278513,81.8817303 113.287961,75.5688371 114.563238,68.8252348 Z M77.8307509,83.1084439 C72.9320696,75.7690257 74.0348646,57.2386364 74.0348646,57.2386364 C74.0348646,57.2386364 90.811073,62.1711497 95.7026547,69.4954143 C99.2287586,74.7966665 100.241626,80.9364206 98.6820942,85.346133 C98.0668009,87.0913285 89.315437,76.9939458 87.9428596,78.0471246 C86.7714359,78.9209851 93.1894183,91.0135984 91.7813432,91.1802886 C87.1761095,91.7561273 81.6053387,88.7380252 77.8307509,83.1084439 Z M60.3628477,118.444421 C49.4904195,117.159028 33.6785714,100.322118 33.6785714,100.322118 C33.6785714,100.322118 52.6827394,87.5626638 63.5337746,88.8530295 C71.3921585,89.7878609 77.8219614,94.0020609 80.4533077,99.3176713 C81.4944366,101.408611 64.7817031,101.642318 64.5416254,103.944589 C64.3443338,105.859005 80.8288747,109.658 79.7378287,111.229313 C76.2745301,116.368399 68.708518,119.419032 60.3628477,118.444421 Z M83.7529557,133.12503 C84.4925347,134.526892 72.4655716,134.687801 72.3020593,136.214002 C72.1637026,137.481772 84.0095443,140.024627 83.2347473,141.0681 C80.7367815,144.505709 75.3006244,146.536579 69.3060097,145.875876 C61.4674786,145.027445 50.1071429,133.812552 50.1071429,133.812552 C50.1071429,133.812552 63.7767763,125.289233 71.5976983,126.152293 C77.2451637,126.781302 81.8612435,129.575273 83.7529557,133.12503 Z" id="dark-leaves" fill="#1D8670"></path>
        </g>
    </g>
</svg>